<?xml version="1.0" encoding="UTF-8" standalone="no"?>
<!-- Created with Inkscape (http://www.inkscape.org/) -->

<svg
   width="23.089642mm"
   height="37.792591mm"
   viewBox="0 0 23.089642 37.792591"
   version="1.1"
   id="svg5"
   xml:space="preserve"
   inkscape:version="1.2 (1:1.2+202206011327+fc4e4096c5)"
   sodipodi:docname="logo2.svg"
   xmlns:inkscape="http://www.inkscape.org/namespaces/inkscape"
   xmlns:sodipodi="http://sodipodi.sourceforge.net/DTD/sodipodi-0.dtd"
   xmlns:xlink="http://www.w3.org/1999/xlink"
   xmlns="http://www.w3.org/2000/svg"
   xmlns:svg="http://www.w3.org/2000/svg"><sodipodi:namedview
   id="namedview7"
   pagecolor="#ffffff"
   bordercolor="#000000"
   borderopacity="0.25"
   inkscape:showpageshadow="2"
   inkscape:pageopacity="0.0"
   inkscape:pagecheckerboard="0"
   inkscape:deskcolor="#d1d1d1"
   inkscape:document-units="mm"
   showgrid="false"
   inkscape:zoom="3.1466532"
   inkscape:cx="135.85863"
   inkscape:cy="58.315928"
   inkscape:window-width="1920"
   inkscape:window-height="968"
   inkscape:window-x="0"
   inkscape:window-y="27"
   inkscape:window-maximized="1"
   inkscape:current-layer="layer1" />
     <defs
   id="defs8">
    <linearGradient
   id="grad4"
   x1="0%"
   y1="0%"
   x2="100%"
   y2="0%">
      <stop
   offset="0%"
   style="stop-color:#3d8dba;stop-opacity:1"
   id="stop3" />
      <stop
   offset="100%"
   style="stop-color:#226b95;stop-opacity:1"
   id="stop5" />
    </linearGradient>
  </defs>
     <defs
   id="defs15">
    <linearGradient
   id="grad3"
   x1="0%"
   y1="0%"
   x2="100%"
   y2="0%">
      <stop
   offset="0%"
   style="stop-color:#ffe37b;stop-opacity:1"
   id="stop10" />
      <stop
   offset="100%"
   style="stop-color:#ffd153;stop-opacity:1"
   id="stop12" />
    </linearGradient>
  </defs>
     <defs
   id="defs2"><linearGradient
     inkscape:collect="always"
     id="linearGradient1656"><stop
       style="stop-color:#1a1a1a;stop-opacity:1;"
       offset="0"
       id="stop1652" /><stop
       style="stop-color:#1a1a1a;stop-opacity:0;"
       offset="0.93031806"
       id="stop1654" /></linearGradient><radialGradient
     inkscape:collect="always"
     xlink:href="#linearGradient1656"
     id="radialGradient1658"
     cx="17.346619"
     cy="37.755711"
     fx="17.346619"
     fy="37.755711"
     r="10.46154"
     gradientTransform="matrix(1.0311561,0,0,0.13333738,0.38391752,33.091922)"
     gradientUnits="userSpaceOnUse" /></defs><g
   inkscape:label="Layer 1"
   inkscape:groupmode="layer"
   id="layer1"
   transform="translate(-6.8850786,-1.8938083)"><path
     style="fill:url(#grad3);fill-opacity:1;stroke:none;stroke-width:0.0649999;stroke-dasharray:none"
     d="m 27.777126,16.827477 -4.550977,0.01447 c -0.941241,0.176928 -1.86389,0.382332 -1.844926,2.02995 l -0.02871,2.942455 4.445119,0.05246 -0.0043,0.811625 -7.732866,-0.04928 c -1.829095,0.05023 -2.602743,1.127513 -2.613456,2.947216 l -0.03085,4.01456 c -0.09201,1.863867 0.247857,3.422175 2.210285,3.832481 l 10.096171,0.0057 c 1.564341,-0.160957 2.044817,-1.047547 2.240102,-2.073868 l -0.02224,-2.444383 c -0.304451,-1.472338 -1.093924,-1.447212 -1.823652,-1.606542 l -5.653928,-0.04325 c -0.469401,-0.285874 -0.386854,-0.57105 -0.01133,-0.814232 L 29.97472,26.381799 29.95787,19.364 c -0.190865,-1.242135 -0.526442,-2.377198 -2.180744,-2.536523 z"
     id="path1466-6-6"
     sodipodi:nodetypes="ccccccccccccccccccc" /><path
     style="fill:url(#grad4);fill-opacity:1;stroke:none;stroke-width:0.0649999;stroke-dasharray:none;stroke-opacity:1"
     d="M 20.486244,21.798611 10.0378,21.741841 C 8.693738,21.634274 7.824617,20.809182 7.733327,18.80897 l 0.0069,-5.425769 c 0.05396,-1.601544 0.67583,-2.677469 2.251597,-2.870549 l 7.12242,0.05427 0.01168,4.306156 0.961506,0.06885 -0.02137,-5.4416477 -4.82588,-0.0038 -0.023,-2.4807674 c 0.155454,-1.29842 1.615945,-1.671918 2.884523,-1.563532 l 4.843071,0.01276 c 1.022964,0.199231 1.649931,0.74002 1.785696,1.704486 l 0.0047,8.7283021 c -1.063592,0.504007 -2.053116,1.067183 -2.247729,2.265389 z"
     id="path1494-7-2"
     sodipodi:nodetypes="ccccccccccccccccc" /><ellipse
     style="fill:#ffffff;fill-opacity:1;stroke:none;stroke-width:0.0852864;stroke-dasharray:none;stroke-opacity:1"
     id="path5182-5-9"
     cx="15.36295"
     cy="7.5740805"
     rx="1.1882677"
     ry="1.136374" /><ellipse
     style="fill:#ffffff;fill-opacity:1;stroke:none;stroke-width:0.0852864;stroke-dasharray:none;stroke-opacity:1"
     id="path5182-5-9-3"
     cx="27.500957"
     cy="30.395575"
     rx="1.1882677"
     ry="1.136374" /><ellipse
     style="fill:url(#radialGradient1658);fill-opacity:1;stroke-width:0.0303595"
     id="path456-9"
     cx="18.270988"
     cy="38.126171"
     rx="10.787479"
     ry="1.3949143" /></g></svg>
