<?xml version="1.0" encoding="UTF-8" standalone="no"?>
<!-- Created with Inkscape (http://www.inkscape.org/) -->

<svg
   width="22.241392mm"
   height="27.994633mm"
   viewBox="0 0 22.241392 27.994633"
   version="1.1"
   id="svg5"
   xml:space="preserve"
   xmlns:inkscape="http://www.inkscape.org/namespaces/inkscape"
   xmlns:sodipodi="http://sodipodi.sourceforge.net/DTD/sodipodi-0.dtd"
   xmlns="http://www.w3.org/2000/svg"
   xmlns:svg="http://www.w3.org/2000/svg"><sodipodi:namedview
     id="namedview7"
     pagecolor="#ffffff"
     bordercolor="#000000"
     borderopacity="0.25"
     inkscape:showpageshadow="2"
     inkscape:pageopacity="0.0"
     inkscape:pagecheckerboard="0"
     inkscape:deskcolor="#d1d1d1"
     inkscape:document-units="mm"
     showgrid="false"
     inkscape:zoom="8.9605555"
     inkscape:cx="297.30299"
     inkscape:cy="127.28005"
     inkscape:window-width="1920"
     inkscape:window-height="968"
     inkscape:window-x="0"
     inkscape:window-y="27"
     inkscape:window-maximized="1"
     inkscape:current-layer="layer1" /><defs
     id="defs2" /><g
     inkscape:label="Layer 1"
     inkscape:groupmode="layer"
     id="layer1"
     transform="translate(-12.757666,-6.2264698)"><g
       id="g5215"
       transform="translate(-10.942755,-1.7527141)"><path
         style="fill:#ffd963;fill-opacity:1;stroke:none;stroke-width:0.0649999;stroke-dasharray:none"
         d="m 43.744221,19.372178 -4.550977,0.01447 c -0.941241,0.176928 -1.86389,0.382332 -1.844926,2.02995 l -0.02871,2.942455 4.445119,0.05246 -0.0043,0.811625 -7.732866,-0.04928 c -1.829095,0.05023 -2.602743,1.127513 -2.613456,2.947216 l -0.03085,4.01456 c -0.09201,1.863867 0.247857,3.422175 2.210285,3.832481 l 10.096171,0.0057 c 1.564341,-0.160957 2.044817,-1.047547 2.240102,-2.073868 l -0.02224,-2.444383 c -0.304451,-1.472338 -1.093924,-1.447212 -1.823652,-1.606542 l -5.653928,-0.04325 c -0.469401,-0.285874 -0.386854,-0.57105 -0.01133,-0.814232 l 7.523152,-0.06504 -0.01685,-7.017799 C 45.7341,20.666566 45.398523,19.531503 43.744221,19.372178 Z"
         id="path1466"
         sodipodi:nodetypes="ccccccccccccccccccc" /><path
         style="fill:#2a74a0;fill-opacity:1;stroke:none;stroke-width:0.0649999;stroke-dasharray:none;stroke-opacity:1"
         d="m 36.453339,24.343312 -10.448444,-0.05677 c -1.344062,-0.107567 -2.213183,-0.932659 -2.304473,-2.932871 l 0.0069,-5.425769 c 0.05396,-1.601544 0.67583,-2.677469 2.251597,-2.870549 l 7.12242,0.05427 0.01168,4.306156 0.961506,0.06885 -0.02137,-5.441648 -4.82588,-0.0038 -0.023,-2.4807674 c 0.155454,-1.29842 1.615945,-1.671918 2.884523,-1.563532 l 4.843071,0.01276 c 1.022964,0.199231 1.649931,0.74002 1.785696,1.704486 l 0.0047,8.7283024 c -1.063592,0.504007 -2.053116,1.067183 -2.247729,2.265389 z"
         id="path1494"
         sodipodi:nodetypes="ccccccccccccccccc" /><ellipse
         style="fill:#ffffff;fill-opacity:1;stroke:none;stroke-width:0.0515595;stroke-dasharray:none;stroke-opacity:1"
         id="path5182"
         cx="31.012705"
         cy="10.034739"
         rx="0.67795521"
         ry="0.7279346" /><ellipse
         style="fill:#ffffff;fill-opacity:1;stroke:none;stroke-width:0.0515595;stroke-dasharray:none;stroke-opacity:1"
         id="path5182-4"
         cx="43.706093"
         cy="33.917587"
         rx="0.67795521"
         ry="0.7279346" /></g></g></svg>
